<svg xmlns="http://www.w3.org/2000/svg" width="1100" height="938" viewBox="0 0 1100 938"><rect x="0.00" y="0.00" width="1100.00" height="938.00" fill="#FAF8F4" rx="2"/><text x="42" y="42" text-anchor="start" fill="#20242A" font-family="Arial, Helvetica, sans-serif" font-size="24px" font-weight="700">Distinctive feature prevalence</text><text x="42" y="68" text-anchor="start" fill="#65707C" font-family="Arial, Helvetica, sans-serif" font-size="13px" font-weight="400">Difference in the share of candidate/election documents containing each feature</text><line x1="550" y1="102" x2="550" y2="890" stroke="#D9DEE5" stroke-width="1"/><rect x="550.00" y="112.00" width="237.23" height="18.00" fill="#D9272E" rx="2"/><text x="540" y="126" text-anchor="end" fill="#20242A" font-family="Arial, Helvetica, sans-serif" font-size="12px" font-weight="400">Minimum Wage</text><rect x="550.00" y="144.00" width="242.50" height="18.00" fill="#D9272E" rx="2"/><text x="540" y="158" text-anchor="end" fill="#20242A" font-family="Arial, Helvetica, sans-serif" font-size="12px" font-weight="400">Union</text><rect x="550.00" y="176.00" width="276.99" height="18.00" fill="#D9272E" rx="2"/><text x="540" y="190" text-anchor="end" fill="#20242A" font-family="Arial, Helvetica, sans-serif" font-size="12px" font-weight="400">Housing</text><rect x="550.00" y="208.00" width="278.14" height="18.00" fill="#D9272E" rx="2"/><text x="540" y="222" text-anchor="end" fill="#20242A" font-family="Arial, Helvetica, sans-serif" font-size="12px" font-weight="400">Living Wage</text><rect x="550.00" y="240.00" width="300.62" height="18.00" fill="#D9272E" rx="2"/><text x="540" y="254" text-anchor="end" fill="#20242A" font-family="Arial, Helvetica, sans-serif" font-size="12px" font-weight="400">Medicare For All</text><rect x="550.00" y="272.00" width="302.04" height="18.00" fill="#D9272E" rx="2"/><text x="540" y="286" text-anchor="end" fill="#20242A" font-family="Arial, Helvetica, sans-serif" font-size="12px" font-weight="400">Social Housing</text><rect x="550.00" y="304.00" width="321.78" height="18.00" fill="#D9272E" rx="2"/><text x="540" y="318" text-anchor="end" fill="#20242A" font-family="Arial, Helvetica, sans-serif" font-size="12px" font-weight="400">Single Payer</text><rect x="550.00" y="336.00" width="351.40" height="18.00" fill="#D9272E" rx="2"/><text x="540" y="350" text-anchor="end" fill="#20242A" font-family="Arial, Helvetica, sans-serif" font-size="12px" font-weight="400">Tenant</text><rect x="550.00" y="368.00" width="352.86" height="18.00" fill="#D9272E" rx="2"/><text x="540" y="382" text-anchor="end" fill="#20242A" font-family="Arial, Helvetica, sans-serif" font-size="12px" font-weight="400">Healthcare</text><rect x="550.00" y="400.00" width="372.78" height="18.00" fill="#D9272E" rx="2"/><text x="540" y="414" text-anchor="end" fill="#20242A" font-family="Arial, Helvetica, sans-serif" font-size="12px" font-weight="400">Rent Control</text><rect x="550.00" y="432.00" width="384.87" height="18.00" fill="#D9272E" rx="2"/><text x="540" y="446" text-anchor="end" fill="#20242A" font-family="Arial, Helvetica, sans-serif" font-size="12px" font-weight="400">Worker</text><rect x="550.00" y="464.00" width="390.00" height="18.00" fill="#D9272E" rx="2"/><text x="540" y="478" text-anchor="end" fill="#20242A" font-family="Arial, Helvetica, sans-serif" font-size="12px" font-weight="400">Human Right</text><rect x="360.63" y="496.00" width="189.37" height="18.00" fill="#2F6DB0" rx="2"/><text x="560" y="510" text-anchor="start" fill="#20242A" font-family="Arial, Helvetica, sans-serif" font-size="12px" font-weight="400">Business</text><rect x="391.88" y="528.00" width="158.12" height="18.00" fill="#2F6DB0" rx="2"/><text x="560" y="542" text-anchor="start" fill="#20242A" font-family="Arial, Helvetica, sans-serif" font-size="12px" font-weight="400">American</text><rect x="415.56" y="560.00" width="134.44" height="18.00" fill="#2F6DB0" rx="2"/><text x="560" y="574" text-anchor="start" fill="#20242A" font-family="Arial, Helvetica, sans-serif" font-size="12px" font-weight="400">Small Business</text><rect x="428.62" y="592.00" width="121.38" height="18.00" fill="#2F6DB0" rx="2"/><text x="560" y="606" text-anchor="start" fill="#20242A" font-family="Arial, Helvetica, sans-serif" font-size="12px" font-weight="400">Opportunity</text><rect x="429.37" y="624.00" width="120.63" height="18.00" fill="#2F6DB0" rx="2"/><text x="560" y="638" text-anchor="start" fill="#20242A" font-family="Arial, Helvetica, sans-serif" font-size="12px" font-weight="400">Public Option</text><rect x="434.86" y="656.00" width="115.14" height="18.00" fill="#2F6DB0" rx="2"/><text x="560" y="670" text-anchor="start" fill="#20242A" font-family="Arial, Helvetica, sans-serif" font-size="12px" font-weight="400">Children</text><rect x="439.02" y="688.00" width="110.98" height="18.00" fill="#2F6DB0" rx="2"/><text x="560" y="702" text-anchor="start" fill="#20242A" font-family="Arial, Helvetica, sans-serif" font-size="12px" font-weight="400">Technology</text><rect x="451.64" y="720.00" width="98.36" height="18.00" fill="#2F6DB0" rx="2"/><text x="560" y="734" text-anchor="start" fill="#20242A" font-family="Arial, Helvetica, sans-serif" font-size="12px" font-weight="400">Seattle</text><rect x="454.38" y="752.00" width="95.62" height="18.00" fill="#2F6DB0" rx="2"/><text x="560" y="766" text-anchor="start" fill="#20242A" font-family="Arial, Helvetica, sans-serif" font-size="12px" font-weight="400">Accountability</text><rect x="456.46" y="784.00" width="93.54" height="18.00" fill="#2F6DB0" rx="2"/><text x="560" y="798" text-anchor="start" fill="#20242A" font-family="Arial, Helvetica, sans-serif" font-size="12px" font-weight="400">Women</text><rect x="456.46" y="816.00" width="93.54" height="18.00" fill="#2F6DB0" rx="2"/><text x="560" y="830" text-anchor="start" fill="#20242A" font-family="Arial, Helvetica, sans-serif" font-size="12px" font-weight="400">Decision</text><rect x="456.46" y="848.00" width="93.54" height="18.00" fill="#2F6DB0" rx="2"/><text x="560" y="862" text-anchor="start" fill="#20242A" font-family="Arial, Helvetica, sans-serif" font-size="12px" font-weight="400">Training</text><text x="750" y="86" text-anchor="middle" fill="#D9272E" font-family="Arial, Helvetica, sans-serif" font-size="12px" font-weight="400">More DSA-endorsed documents</text><text x="350" y="86" text-anchor="middle" fill="#2F6DB0" font-family="Arial, Helvetica, sans-serif" font-size="12px" font-weight="400">More opponent documents</text><text x="42" y="918" text-anchor="start" fill="#65707C" font-family="Arial, Helvetica, sans-serif" font-size="11px" font-weight="400">Positive scores favor the red group; negative scores favor the blue group.</text></svg>
