<svg xmlns="http://www.w3.org/2000/svg" width="1100" height="726" viewBox="0 0 1100 726"><rect x="0.00" y="0.00" width="1100.00" height="726.00" fill="#FAF8F4" rx="2"/><text x="42" y="42" text-anchor="start" fill="#20242A" font-family="Arial, Helvetica, sans-serif" font-size="24px" font-weight="700">Issue emphasis by candidate group</text><text x="42" y="68" text-anchor="start" fill="#65707C" font-family="Arial, Helvetica, sans-serif" font-size="13px" font-weight="400">Share of verified excerpts coded to each topic</text><text x="270" y="133" text-anchor="end" fill="#20242A" font-family="Arial, Helvetica, sans-serif" font-size="12px" font-weight="400">Housing</text><rect x="285.00" y="120.00" width="720.00" height="13.00" fill="#D9272E" rx="2"/><rect x="285.00" y="137.00" width="593.43" height="13.00" fill="#2F6DB0" rx="2"/><text x="270" y="175" text-anchor="end" fill="#20242A" font-family="Arial, Helvetica, sans-serif" font-size="12px" font-weight="400">Climate Energy</text><rect x="285.00" y="162.00" width="401.86" height="13.00" fill="#D9272E" rx="2"/><rect x="285.00" y="179.00" width="514.21" height="13.00" fill="#2F6DB0" rx="2"/><text x="270" y="217" text-anchor="end" fill="#20242A" font-family="Arial, Helvetica, sans-serif" font-size="12px" font-weight="400">Public Safety</text><rect x="285.00" y="204.00" width="452.09" height="13.00" fill="#D9272E" rx="2"/><rect x="285.00" y="221.00" width="432.00" height="13.00" fill="#2F6DB0" rx="2"/><text x="270" y="259" text-anchor="end" fill="#20242A" font-family="Arial, Helvetica, sans-serif" font-size="12px" font-weight="400">Healthcare</text><rect x="285.00" y="246.00" width="405.21" height="13.00" fill="#D9272E" rx="2"/><rect x="285.00" y="263.00" width="343.80" height="13.00" fill="#2F6DB0" rx="2"/><text x="270" y="301" text-anchor="end" fill="#20242A" font-family="Arial, Helvetica, sans-serif" font-size="12px" font-weight="400">Education</text><rect x="285.00" y="288.00" width="267.91" height="13.00" fill="#D9272E" rx="2"/><rect x="285.00" y="305.00" width="330.35" height="13.00" fill="#2F6DB0" rx="2"/><text x="270" y="343" text-anchor="end" fill="#20242A" font-family="Arial, Helvetica, sans-serif" font-size="12px" font-weight="400">Political Strategy</text><rect x="285.00" y="330.00" width="318.14" height="13.00" fill="#D9272E" rx="2"/><rect x="285.00" y="347.00" width="243.65" height="13.00" fill="#2F6DB0" rx="2"/><text x="270" y="385" text-anchor="end" fill="#20242A" font-family="Arial, Helvetica, sans-serif" font-size="12px" font-weight="400">Labor</text><rect x="285.00" y="372.00" width="341.58" height="13.00" fill="#D9272E" rx="2"/><rect x="285.00" y="389.00" width="209.27" height="13.00" fill="#2F6DB0" rx="2"/><text x="270" y="427" text-anchor="end" fill="#20242A" font-family="Arial, Helvetica, sans-serif" font-size="12px" font-weight="400">Tax Budget</text><rect x="285.00" y="414.00" width="170.79" height="13.00" fill="#D9272E" rx="2"/><rect x="285.00" y="431.00" width="218.24" height="13.00" fill="#2F6DB0" rx="2"/><text x="270" y="469" text-anchor="end" fill="#20242A" font-family="Arial, Helvetica, sans-serif" font-size="12px" font-weight="400">Immigration</text><rect x="285.00" y="456.00" width="103.81" height="13.00" fill="#D9272E" rx="2"/><rect x="285.00" y="473.00" width="183.86" height="13.00" fill="#2F6DB0" rx="2"/><text x="270" y="511" text-anchor="end" fill="#20242A" font-family="Arial, Helvetica, sans-serif" font-size="12px" font-weight="400">Civil Rights</text><rect x="285.00" y="498.00" width="107.16" height="13.00" fill="#D9272E" rx="2"/><rect x="285.00" y="515.00" width="147.98" height="13.00" fill="#2F6DB0" rx="2"/><text x="270" y="553" text-anchor="end" fill="#20242A" font-family="Arial, Helvetica, sans-serif" font-size="12px" font-weight="400">Economic Ownership</text><rect x="285.00" y="540.00" width="87.07" height="13.00" fill="#D9272E" rx="2"/><rect x="285.00" y="557.00" width="147.98" height="13.00" fill="#2F6DB0" rx="2"/><text x="270" y="595" text-anchor="end" fill="#20242A" font-family="Arial, Helvetica, sans-serif" font-size="12px" font-weight="400">Democracy</text><rect x="285.00" y="582.00" width="107.16" height="13.00" fill="#D9272E" rx="2"/><rect x="285.00" y="599.00" width="115.10" height="13.00" fill="#2F6DB0" rx="2"/><text x="270" y="637" text-anchor="end" fill="#20242A" font-family="Arial, Helvetica, sans-serif" font-size="12px" font-weight="400">Foreign Policy</text><rect x="285.00" y="624.00" width="70.33" height="13.00" fill="#D9272E" rx="2"/><rect x="285.00" y="641.00" width="73.24" height="13.00" fill="#2F6DB0" rx="2"/><rect x="790.00" y="62.00" width="12.00" height="12.00" fill="#D9272E" rx="2"/><text x="808" y="72" text-anchor="start" fill="#20242A" font-family="Arial, Helvetica, sans-serif" font-size="11px" font-weight="400">DSA-endorsed</text><rect x="925.00" y="62.00" width="12.00" height="12.00" fill="#2F6DB0" rx="2"/><text x="943" y="72" text-anchor="start" fill="#20242A" font-family="Arial, Helvetica, sans-serif" font-size="11px" font-weight="400">Democratic opponents</text><text x="42" y="706" text-anchor="start" fill="#65707C" font-family="Arial, Helvetica, sans-serif" font-size="11px" font-weight="400">Source: verified first-party candidate statements; duplicate queue copies removed.</text></svg>
