<svg xmlns="http://www.w3.org/2000/svg" width="1100" height="938" viewBox="0 0 1100 938"><rect x="0.00" y="0.00" width="1100.00" height="938.00" fill="#FAF8F4" rx="2"/><text x="42" y="42" text-anchor="start" fill="#20242A" font-family="Arial, Helvetica, sans-serif" font-size="24px" font-weight="700">Distinctive TF-IDF terms</text><text x="42" y="68" text-anchor="start" fill="#65707C" font-family="Arial, Helvetica, sans-serif" font-size="13px" font-weight="400">Mean document TF-IDF: DSA-endorsed candidates versus Democratic opponents</text><line x1="550" y1="102" x2="550" y2="890" stroke="#D9DEE5" stroke-width="1"/><rect x="550.00" y="112.00" width="247.22" height="18.00" fill="#D9272E" rx="2"/><text x="540" y="126" text-anchor="end" fill="#20242A" font-family="Arial, Helvetica, sans-serif" font-size="12px" font-weight="400">communities</text><rect x="550.00" y="144.00" width="247.65" height="18.00" fill="#D9272E" rx="2"/><text x="540" y="158" text-anchor="end" fill="#20242A" font-family="Arial, Helvetica, sans-serif" font-size="12px" font-weight="400">political</text><rect x="550.00" y="176.00" width="256.05" height="18.00" fill="#D9272E" rx="2"/><text x="540" y="190" text-anchor="end" fill="#20242A" font-family="Arial, Helvetica, sans-serif" font-size="12px" font-weight="400">system</text><rect x="550.00" y="208.00" width="259.67" height="18.00" fill="#D9272E" rx="2"/><text x="540" y="222" text-anchor="end" fill="#20242A" font-family="Arial, Helvetica, sans-serif" font-size="12px" font-weight="400">right</text><rect x="550.00" y="240.00" width="265.22" height="18.00" fill="#D9272E" rx="2"/><text x="540" y="254" text-anchor="end" fill="#20242A" font-family="Arial, Helvetica, sans-serif" font-size="12px" font-weight="400">wage</text><rect x="550.00" y="272.00" width="283.22" height="18.00" fill="#D9272E" rx="2"/><text x="540" y="286" text-anchor="end" fill="#20242A" font-family="Arial, Helvetica, sans-serif" font-size="12px" font-weight="400">human</text><rect x="550.00" y="304.00" width="288.43" height="18.00" fill="#D9272E" rx="2"/><text x="540" y="318" text-anchor="end" fill="#20242A" font-family="Arial, Helvetica, sans-serif" font-size="12px" font-weight="400">social</text><rect x="550.00" y="336.00" width="293.56" height="18.00" fill="#D9272E" rx="2"/><text x="540" y="350" text-anchor="end" fill="#20242A" font-family="Arial, Helvetica, sans-serif" font-size="12px" font-weight="400">basis</text><rect x="550.00" y="368.00" width="298.21" height="18.00" fill="#D9272E" rx="2"/><text x="540" y="382" text-anchor="end" fill="#20242A" font-family="Arial, Helvetica, sans-serif" font-size="12px" font-weight="400">everything</text><rect x="550.00" y="400.00" width="300.16" height="18.00" fill="#D9272E" rx="2"/><text x="540" y="414" text-anchor="end" fill="#20242A" font-family="Arial, Helvetica, sans-serif" font-size="12px" font-weight="400">control</text><rect x="550.00" y="432.00" width="386.90" height="18.00" fill="#D9272E" rx="2"/><text x="540" y="446" text-anchor="end" fill="#20242A" font-family="Arial, Helvetica, sans-serif" font-size="12px" font-weight="400">housing</text><rect x="550.00" y="464.00" width="390.00" height="18.00" fill="#D9272E" rx="2"/><text x="540" y="478" text-anchor="end" fill="#20242A" font-family="Arial, Helvetica, sans-serif" font-size="12px" font-weight="400">rent</text><rect x="338.89" y="496.00" width="211.11" height="18.00" fill="#2F6DB0" rx="2"/><text x="560" y="510" text-anchor="start" fill="#20242A" font-family="Arial, Helvetica, sans-serif" font-size="12px" font-weight="400">must</text><rect x="352.58" y="528.00" width="197.42" height="18.00" fill="#2F6DB0" rx="2"/><text x="560" y="542" text-anchor="start" fill="#20242A" font-family="Arial, Helvetica, sans-serif" font-size="12px" font-weight="400">option</text><rect x="366.31" y="560.00" width="183.69" height="18.00" fill="#2F6DB0" rx="2"/><text x="560" y="574" text-anchor="start" fill="#20242A" font-family="Arial, Helvetica, sans-serif" font-size="12px" font-weight="400">businesses</text><rect x="382.14" y="592.00" width="167.86" height="18.00" fill="#2F6DB0" rx="2"/><text x="560" y="606" text-anchor="start" fill="#20242A" font-family="Arial, Helvetica, sans-serif" font-size="12px" font-weight="400">want</text><rect x="389.50" y="624.00" width="160.50" height="18.00" fill="#2F6DB0" rx="2"/><text x="560" y="638" text-anchor="start" fill="#20242A" font-family="Arial, Helvetica, sans-serif" font-size="12px" font-weight="400">crime</text><rect x="394.02" y="656.00" width="155.98" height="18.00" fill="#2F6DB0" rx="2"/><text x="560" y="670" text-anchor="start" fill="#20242A" font-family="Arial, Helvetica, sans-serif" font-size="12px" font-weight="400">americans</text><rect x="401.10" y="688.00" width="148.90" height="18.00" fill="#2F6DB0" rx="2"/><text x="560" y="702" text-anchor="start" fill="#20242A" font-family="Arial, Helvetica, sans-serif" font-size="12px" font-weight="400">making</text><rect x="403.27" y="720.00" width="146.73" height="18.00" fill="#2F6DB0" rx="2"/><text x="560" y="734" text-anchor="start" fill="#20242A" font-family="Arial, Helvetica, sans-serif" font-size="12px" font-weight="400">support</text><rect x="403.79" y="752.00" width="146.21" height="18.00" fill="#2F6DB0" rx="2"/><text x="560" y="766" text-anchor="start" fill="#20242A" font-family="Arial, Helvetica, sans-serif" font-size="12px" font-weight="400">small</text><rect x="404.56" y="784.00" width="145.44" height="18.00" fill="#2F6DB0" rx="2"/><text x="560" y="798" text-anchor="start" fill="#20242A" font-family="Arial, Helvetica, sans-serif" font-size="12px" font-weight="400">addict</text><rect x="406.35" y="816.00" width="143.65" height="18.00" fill="#2F6DB0" rx="2"/><text x="560" y="830" text-anchor="start" fill="#20242A" font-family="Arial, Helvetica, sans-serif" font-size="12px" font-weight="400">plan</text><rect x="408.88" y="848.00" width="141.12" height="18.00" fill="#2F6DB0" rx="2"/><text x="560" y="862" text-anchor="start" fill="#20242A" font-family="Arial, Helvetica, sans-serif" font-size="12px" font-weight="400">needs</text><text x="750" y="86" text-anchor="middle" fill="#D9272E" font-family="Arial, Helvetica, sans-serif" font-size="12px" font-weight="400">DSA-endorsed</text><text x="350" y="86" text-anchor="middle" fill="#2F6DB0" font-family="Arial, Helvetica, sans-serif" font-size="12px" font-weight="400">Democratic opponents</text><text x="42" y="918" text-anchor="start" fill="#65707C" font-family="Arial, Helvetica, sans-serif" font-size="11px" font-weight="400">Positive scores favor the red group; negative scores favor the blue group.</text></svg>
