<svg xmlns="http://www.w3.org/2000/svg" width="1200" height="620" viewBox="0 0 1200 620"><rect x="0.00" y="0.00" width="1200.00" height="620.00" fill="#F7F5F0" rx="3"/><text x="48" y="47" text-anchor="start" fill="#1A1A1A" font-family="Inter, Arial, Helvetica, sans-serif" font-size="27px" font-weight="700" font-style="normal">Eligible first-party text by election cycle</text><text x="48" y="74" text-anchor="start" fill="#6B6B6B" font-family="Inter, Arial, Helvetica, sans-serif" font-size="14px" font-weight="400" font-style="normal">Count of deduplicated substantive candidate segments</text><line x1="105" y1="520.0" x2="1080" y2="520.0" stroke="#D6D3CC" stroke-width="1"/><text x="91" y="524.0" text-anchor="end" fill="#6B6B6B" font-family="Inter, Arial, Helvetica, sans-serif" font-size="11px" font-weight="400" font-style="normal">0</text><line x1="105" y1="421.25" x2="1080" y2="421.25" stroke="#D6D3CC" stroke-width="1"/><text x="91" y="425.25" text-anchor="end" fill="#6B6B6B" font-family="Inter, Arial, Helvetica, sans-serif" font-size="11px" font-weight="400" font-style="normal">1862</text><line x1="105" y1="322.5" x2="1080" y2="322.5" stroke="#D6D3CC" stroke-width="1"/><text x="91" y="326.5" text-anchor="end" fill="#6B6B6B" font-family="Inter, Arial, Helvetica, sans-serif" font-size="11px" font-weight="400" font-style="normal">3724</text><line x1="105" y1="223.75" x2="1080" y2="223.75" stroke="#D6D3CC" stroke-width="1"/><text x="91" y="227.75" text-anchor="end" fill="#6B6B6B" font-family="Inter, Arial, Helvetica, sans-serif" font-size="11px" font-weight="400" font-style="normal">5587</text><line x1="105" y1="125.0" x2="1080" y2="125.0" stroke="#D6D3CC" stroke-width="1"/><text x="91" y="129.0" text-anchor="end" fill="#6B6B6B" font-family="Inter, Arial, Helvetica, sans-serif" font-size="11px" font-weight="400" font-style="normal">7449</text><rect x="122.50" y="508.60" width="24.82" height="11.40" fill="#C85A3D" rx="3"/><rect x="151.32" y="512.95" width="24.82" height="7.05" fill="#3D6F8C" rx="3"/><text x="149.3181818181818" y="548" text-anchor="middle" fill="#6B6B6B" font-family="Inter, Arial, Helvetica, sans-serif" font-size="11px" font-weight="400" font-style="normal">2016</text><rect x="211.14" y="511.83" width="24.82" height="8.17" fill="#C85A3D" rx="3"/><rect x="239.95" y="516.29" width="24.82" height="3.71" fill="#3D6F8C" rx="3"/><text x="237.95454545454547" y="548" text-anchor="middle" fill="#6B6B6B" font-family="Inter, Arial, Helvetica, sans-serif" font-size="11px" font-weight="400" font-style="normal">2017</text><rect x="299.77" y="450.75" width="24.82" height="69.25" fill="#C85A3D" rx="3"/><rect x="328.59" y="387.17" width="24.82" height="132.83" fill="#3D6F8C" rx="3"/><text x="326.5909090909091" y="548" text-anchor="middle" fill="#6B6B6B" font-family="Inter, Arial, Helvetica, sans-serif" font-size="11px" font-weight="400" font-style="normal">2018</text><rect x="388.41" y="495.34" width="24.82" height="24.66" fill="#C85A3D" rx="3"/><rect x="417.23" y="459.44" width="24.82" height="60.56" fill="#3D6F8C" rx="3"/><text x="415.22727272727275" y="548" text-anchor="middle" fill="#6B6B6B" font-family="Inter, Arial, Helvetica, sans-serif" font-size="11px" font-weight="400" font-style="normal">2019</text><rect x="477.05" y="413.89" width="24.82" height="106.11" fill="#C85A3D" rx="3"/><rect x="505.86" y="125.00" width="24.82" height="395.00" fill="#3D6F8C" rx="3"/><text x="503.8636363636364" y="548" text-anchor="middle" fill="#6B6B6B" font-family="Inter, Arial, Helvetica, sans-serif" font-size="11px" font-weight="400" font-style="normal">2020</text><rect x="565.68" y="485.43" width="24.82" height="34.57" fill="#C85A3D" rx="3"/><rect x="594.50" y="445.92" width="24.82" height="74.08" fill="#3D6F8C" rx="3"/><text x="592.5" y="548" text-anchor="middle" fill="#6B6B6B" font-family="Inter, Arial, Helvetica, sans-serif" font-size="11px" font-weight="400" font-style="normal">2021</text><rect x="654.32" y="413.20" width="24.82" height="106.80" fill="#C85A3D" rx="3"/><rect x="683.14" y="433.88" width="24.82" height="86.12" fill="#3D6F8C" rx="3"/><text x="681.1363636363636" y="548" text-anchor="middle" fill="#6B6B6B" font-family="Inter, Arial, Helvetica, sans-serif" font-size="11px" font-weight="400" font-style="normal">2022</text><rect x="742.95" y="467.72" width="24.82" height="52.28" fill="#C85A3D" rx="3"/><rect x="771.77" y="458.01" width="24.82" height="61.99" fill="#3D6F8C" rx="3"/><text x="769.7727272727273" y="548" text-anchor="middle" fill="#6B6B6B" font-family="Inter, Arial, Helvetica, sans-serif" font-size="11px" font-weight="400" font-style="normal">2023</text><rect x="831.59" y="417.76" width="24.82" height="102.24" fill="#C85A3D" rx="3"/><rect x="860.41" y="432.66" width="24.82" height="87.34" fill="#3D6F8C" rx="3"/><text x="858.409090909091" y="548" text-anchor="middle" fill="#6B6B6B" font-family="Inter, Arial, Helvetica, sans-serif" font-size="11px" font-weight="400" font-style="normal">2024</text><rect x="920.23" y="484.58" width="24.82" height="35.42" fill="#C85A3D" rx="3"/><rect x="949.05" y="446.24" width="24.82" height="73.76" fill="#3D6F8C" rx="3"/><text x="947.0454545454546" y="548" text-anchor="middle" fill="#6B6B6B" font-family="Inter, Arial, Helvetica, sans-serif" font-size="11px" font-weight="400" font-style="normal">2025</text><rect x="1008.86" y="394.38" width="24.82" height="125.62" fill="#C85A3D" rx="3"/><rect x="1037.68" y="152.95" width="24.82" height="367.05" fill="#3D6F8C" rx="3"/><text x="1035.6818181818182" y="548" text-anchor="middle" fill="#6B6B6B" font-family="Inter, Arial, Helvetica, sans-serif" font-size="11px" font-weight="400" font-style="normal">2026</text><circle cx="806.00" cy="67.00" r="6.00" fill="#C85A3D" stroke="#F7F5F0" stroke-width="2"/><text x="819" y="72" text-anchor="start" fill="#1A1A1A" font-family="Inter, Arial, Helvetica, sans-serif" font-size="11px" font-weight="400" font-style="normal">DSA-endorsed</text><circle cx="951.00" cy="67.00" r="6.00" fill="#3D6F8C" stroke="#F7F5F0" stroke-width="2"/><text x="964" y="72" text-anchor="start" fill="#1A1A1A" font-family="Inter, Arial, Helvetica, sans-serif" font-size="11px" font-weight="400" font-style="normal">Other Democrats</text><text x="48" y="596" text-anchor="start" fill="#6B6B6B" font-family="Inter, Arial, Helvetica, sans-serif" font-size="10px" font-weight="400" font-style="italic">Source: data/analysis/candidate_text_corpus.csv; substantive non-boilerplate segments; shared exact text deduplicated within group and cycle.</text></svg>
